<svg width="48" height="48" fill="none" xmlns="http://www.w3.org/2000/svg"><path d="M0 20C0 10.572 0 5.858 2.929 2.929 5.858 0 10.572 0 20 0h8c9.428 0 14.142 0 17.071 2.929C48 5.858 48 10.572 48 20v8c0 9.428 0 14.142-2.929 17.071C42.142 48 37.428 48 28 48h-8c-9.428 0-14.142 0-17.071-2.929C0 42.142 0 37.428 0 28v-8Z" fill="#1C1C1C"/><path fill-rule="evenodd" clip-rule="evenodd" d="M21.51 10.235c-1.292.368-2.329 1.024-3.374 2.136-.728.774-1.123 1.382-1.501 2.306-.569 1.391-.572 1.435-.622 8.463-.032 4.545-.005 6.969.085 7.646.41 3.066 2.132 5.482 4.748 6.663 4.245 1.915 9.284-.39 10.735-4.91.997-3.105.183-6.48-2.097-8.699-.33-.32-.6-.64-.6-.711 0-.07.11-.228.246-.35.417-.376 1.17-1.747 1.463-2.665.76-2.384.341-5.063-1.106-7.072-.475-.66-1.576-1.662-2.3-2.093-1.514-.902-3.941-1.208-5.677-.714Zm3.213 3.819c.66.223 1.546 1.037 1.916 1.76.535 1.044.535 2.751 0 3.796-.37.722-1.256 1.536-1.916 1.76-.365.123-.95.194-1.608.194H22.08v3.819l1.457.062c1.23.053 1.555.108 2.082.356 1.523.714 2.443 2.241 2.443 4.052 0 1.788-.864 3.268-2.346 4.019-1.763.892-3.973.055-4.97-1.883-.502-.979-.54-1.541-.541-8.19-.002-5.413.025-6.45.184-7.059.576-2.212 2.4-3.342 4.334-2.686Z" fill="#fff" fill-opacity=".3"/></svg>