<svg width="48" height="48" fill="none" xmlns="http://www.w3.org/2000/svg"><path d="M0 20C0 10.572 0 5.858 2.929 2.929 5.858 0 10.572 0 20 0h8c9.428 0 14.142 0 17.071 2.929C48 5.858 48 10.572 48 20v8c0 9.428 0 14.142-2.929 17.071C42.142 48 37.428 48 28 48h-8c-9.428 0-14.142 0-17.071-2.929C0 42.142 0 37.428 0 28v-8Z" fill="#1C1C1C"/><path d="M33.668 26.729c2.106-2.363 3.971-5.195 5.3-8.651l-3-1.097c-1.913 5.026-4.77 8.4-8.224 11.196V11h-3.245v24.604h3.245v-3.631a35.742 35.742 0 0 0 3.587-2.913l2.963 5.012c.74 1.247 1.726 1.896 3.202 1.896.83 0 1.321-.266 1.504-.364l-5.332-8.875Zm-22.274.16c0-4.048 2.109-6.15 5.302-6.15 2.421 0 4.012.907 4.518 1.232.398-.378.717-1.037.717-1.725 0-1.152-1.36-2.4-5.365-2.4-4.67 0-8.566 3.136-8.566 9.08 0 5.798 3.54 9.043 8.208 9.043 2.803 0 5.034-.897 5.686-1.234V31.51c-.711.487-3.002 1.564-5.15 1.564-3.064 0-5.35-2.097-5.35-6.185Z" fill="#fff" fill-opacity=".3"/></svg>