<svg width="48" height="48" fill="none" xmlns="http://www.w3.org/2000/svg"><path d="M0 20C0 10.572 0 5.858 2.929 2.929 5.858 0 10.572 0 20 0h8c9.428 0 14.142 0 17.071 2.929C48 5.858 48 10.572 48 20v8c0 9.428 0 14.142-2.929 17.071C42.142 48 37.428 48 28 48h-8c-9.428 0-14.142 0-17.071-2.929C0 42.142 0 37.428 0 28v-8Z" fill="#1C1C1C"/><path d="M26.086 18.79H32.9v-.19h-6.814v.19ZM15.1 18.79h6.814v-.19H15.1v.19ZM23.806 18.242c.003-.091-.05-.165-.148-.165-.123 0-.279.112-.426.35-.1.158-.17.338-.17.476 0 .094.064.15.134.15.307 0 .61-.617.61-.811Zm-.868.573c0-.37.28-.872.67-.872.198 0 .315.143.315.343 0 .323-.256.908-.682.908-.162 0-.303-.156-.303-.38Z" fill="#fff" fill-opacity=".3"/><path d="M24.153 18.13c-.014 0-.02-.009-.014-.029l.012-.05c.005-.02.011-.03.035-.03h.256c.087-.251.188-.496.343-.669a.606.606 0 0 1 .436-.2c.171 0 .265.103.265.173 0 .091-.059.135-.118.135-.094 0-.12-.052-.13-.117-.002-.03-.031-.085-.12-.085-.273 0-.38.434-.476.764h.285c.018 0 .024.008.018.035l-.015.053c-.003.017-.009.02-.033.02h-.28c-.075.238-.21.747-.358 1.123-.18.458-.389.784-.703.784-.117 0-.212-.08-.212-.173 0-.068.05-.127.127-.127.085 0 .13.083.138.133.006.028.027.05.05.05.141 0 .3-.248.459-.791l.297-.999h-.262ZM18.525 13v2.642h-.59V14.36l-.714.714-.715-.714v1.28h-.59V13l1.305 1.306L18.525 13ZM19.02 15.642h.593v-2.613h-.594v2.613ZM22.347 15.671l-1.65-1.394v1.365h-.59V13l1.65 1.394V13.03h.59v2.642ZM22.841 15.642h.593v-2.613h-.593v2.613ZM24.946 14.111c.361.162.57.423.57.784 0 .47-.345.776-.832.776-.42 0-.759-.172-.94-.511l.446-.365c.115.18.302.324.483.324.173 0 .25-.066.25-.188 0-.117-.084-.19-.305-.29l-.147-.067c-.395-.176-.612-.467-.612-.82 0-.457.379-.754.795-.754.292 0 .513.07.734.327l-.398.42c-.133-.162-.214-.195-.335-.195-.1 0-.203.063-.203.18 0 .136.114.21.354.316l.14.063ZM26.92 13.61v2.032h-.601V13.61h-.623v-.582h1.846v.582h-.623ZM28.879 14.086c.158 0 .272-.115.272-.258a.264.264 0 0 0-.272-.262h-.336v.52h.336Zm-.336 1.556h-.586v-2.613h.988a.78.78 0 0 1 .777.777c0 .324-.199.61-.5.724l.847 1.112h-.704l-.81-1.06h-.012v1.06ZM31.57 13.03h.696l-.97 1.515v1.097h-.59v-1.097l-.968-1.516h.689l.572.917.57-.917ZM16.913 21.65h.656l-1.235 2.642L15.1 21.65h.656l.578 1.306.579-1.306ZM18.412 22.673h.81v.566h-.81v.442h1.031v.581h-1.62V21.65h1.62v.581h-1.031v.442ZM19.848 21.65h.593v2.027h1.014v.585h-1.607V21.65ZM23.62 22.956c0-.42-.32-.77-.744-.77-.423 0-.744.35-.744.77 0 .42.32.77.744.77s.745-.35.745-.77Zm-2.08 0a1.338 1.338 0 0 1 2.674 0c0 .736-.6 1.336-1.337 1.336s-1.338-.6-1.338-1.337ZM25.834 23.725c.28 0 .515-.152.648-.365l.447.365a1.34 1.34 0 0 1-2.433-.77 1.339 1.339 0 0 1 2.433-.768l-.447.363a.763.763 0 0 0-.648-.363c-.424 0-.744.349-.744.768 0 .42.32.77.744.77ZM27.358 24.262h.593V21.65h-.593v2.612ZM29.517 22.231v2.03h-.601v-2.03h-.623v-.581h1.846v.581h-.622ZM32.204 21.65h.696l-.969 1.516v1.096h-.59v-1.096l-.968-1.516h.688l.572.915.57-.915ZM40.601 18.317h1.03V15.42H40.6v2.896ZM35.538 18.317h1.03v-2.383h-1.03v2.383ZM37.225 18.317h1.031v-3.264h-1.03v3.264ZM38.913 18.317h1.03v-4.214h-1.03v4.214ZM6.369 18.317h1.03V15.42h-1.03v2.896ZM11.432 18.317h1.03v-2.383h-1.03v2.383ZM9.744 18.317h1.03v-3.264h-1.03v3.264ZM8.056 18.317h1.03v-4.214h-1.03v4.214Z" fill="#fff" fill-opacity=".3"/><path d="M43.817 20.622c-.65 2.575-1.838 5.025-3.584 7.338a18 18 0 0 1-2.04 2.28c2.51-2.81 3.969-6.731 4.038-11.426h-.286c-.069 1.319-.096 7.065-4.787 12.08-.636.68-1.27 1.029-2.118 1.632l-.573.349c-.012.015-.269.14-.664.365-.694.335-1.864.943-2.663.488-.8-.454-.89-.582-1.647-.773-.757-.191-1.702.115-1.702.115l.226-.163h-.004c6.694-4.792 7.168-12.814 7.2-14.095h-.01v-.006h-.263c.003.114-.012 11.428-10.907 15.888l-.033.013-.033-.013c-10.895-4.46-10.91-15.774-10.907-15.888h-.264v.006h-.008c.03 1.28.505 9.303 7.2 14.095h-.005l.226.163s-.944-.306-1.702-.115c-.757.19-.847.319-1.646.773-.8.455-1.97-.153-2.664-.488-.396-.225-.652-.35-.663-.365l-.575-.35c-.846-.602-1.482-.95-2.117-1.631-4.69-5.015-4.718-10.761-4.787-12.08H5.77c.07 4.695 1.528 8.617 4.04 11.426a17.956 17.956 0 0 1-2.042-2.28c-1.746-2.313-2.935-4.763-3.584-7.338L4 20.685c1.742 6.756 5.16 10.763 10.84 13.257.247.12.497.237.754.35.413.182.83.294 1.25.342.729.13 1.465.092 2.157-.232l.008-.005a7.74 7.74 0 0 0 .367-.125c.56-.207 1.285-.135 1.871.048.636.197 1.198.671 1.857 1.063l.893.48v.004l.003-.002.003.002v-.004l.893-.48c.66-.392 1.22-.866 1.856-1.063.587-.183 1.313-.255 1.872-.048.122.046.245.087.367.125l.009.005c.69.324 1.427.362 2.155.232.421-.048.838-.16 1.25-.342.258-.113.508-.23.755-.35 5.68-2.494 9.098-6.501 10.84-13.257l-.183-.063Z" fill="#fff" fill-opacity=".3"/><path d="m37.785 23.228-1.328-.64 1.322.667.006-.027ZM41.242 22.355l.002-.017-3.151.883-.004.016 3.153-.882ZM41.192 22.575l-3.164.895a4.828 4.828 0 0 0-.005.018l3.158-.884.011-.03ZM35.103 22.175l-.005.024 2.62 1.262-.003-.011-2.612-1.275ZM14.574 31.33l-1.216-.16-1.896-.227a17.42 17.42 0 0 0 2.748 1.85s1.272.68 1.702.66c.405-.021.862-.166 1.274-.392a12.73 12.73 0 0 1-2.577-1.726l-.035-.006ZM16.494 30.12l-1.636 1.116a11.93 11.93 0 0 0 2.572 1.688c.336-.178.831-.39 1.384-.42a16.05 16.05 0 0 1-2.32-2.384ZM37.798 23.174c.578-2.286.628-4.089.631-4.361l-2.907-.001s-.071 1.81-.37 3.118l.438.221 2.208 1.023ZM41.245 22.331l.414-3.517-2.945-.002c-.01.553-.086 2.26-.61 4.36l3.14-.84Z" fill="#fff" fill-opacity=".3"/><path d="M36.105 27.54c.76-1.372 1.272-2.787 1.616-4.068l-.003-.011-1.097-.529-1.529-.707c-.07.335-.617 2.837-1.25 3.956l2.263 1.358ZM39.631 26.826l1.538-4.19-2.397.643-.749.21a18.039 18.039 0 0 1-1.59 4.029l3.198-.692ZM31.498 30.13a16.003 16.003 0 0 1-2.312 2.373c.553.031 1.048.243 1.385.42a11.95 11.95 0 0 0 2.562-1.679l-1.635-1.115ZM34.67 31.164l-1.051.138-.228.033a12.735 12.735 0 0 1-2.577 1.726c.411.227.869.37 1.274.392.43.02 1.702-.66 1.702-.66a17.499 17.499 0 0 0 2.752-1.852l-1.871.223ZM33.331 31.047l.03-.004a13.344 13.344 0 0 0 2.608-3.26l-.224-.138-2.015-1.21a17.624 17.624 0 0 1-2.062 3.477l1.663 1.135ZM36.9 30.62a15.91 15.91 0 0 0 2.564-3.476l-2.343.507-.879.209a13.762 13.762 0 0 1-2.48 3.135l3.138-.375ZM14.265 26.425l-1.827 1.096-.41.254a13.352 13.352 0 0 0 2.614 3.27l.004.002 1.68-1.146a17.674 17.674 0 0 1-2.06-3.476ZM11.119 27.708l-2.58-.558a15.864 15.864 0 0 0 2.564 3.472l3.138.376a13.751 13.751 0 0 1-2.483-3.139l-.64-.151ZM9.332 23.313l-2.499-.67 1.538 4.188 3.2.692a18.007 18.007 0 0 1-1.593-4.03l-.646-.18ZM9.897 23.178c-.525-2.103-.602-3.813-.611-4.365l-2.945.001.415 3.524 3.141.84ZM12.659 22.026l.188-.096c-.27-1.363-.37-3.118-.37-3.118H9.572c.002.273.052 2.072.629 4.353l2.459-1.14ZM12.903 22.216l-1.406.651-1.212.585-.007.02c.344 1.278.855 2.688 1.611 4.057l2.265-1.36c-1.036-2.77-1.222-3.759-1.251-3.953Z" fill="#fff" fill-opacity=".3"/></svg>