<svg width="48" height="48" fill="none" xmlns="http://www.w3.org/2000/svg"><path d="M0 20C0 10.572 0 5.858 2.929 2.929 5.858 0 10.572 0 20 0h8c9.428 0 14.142 0 17.071 2.929C48 5.858 48 10.572 48 20v8c0 9.428 0 14.142-2.929 17.071C42.142 48 37.428 48 28 48h-8c-9.428 0-14.142 0-17.071-2.929C0 42.142 0 37.428 0 28v-8Z" fill="#1C1C1C"/><path fill-rule="evenodd" clip-rule="evenodd" d="M21.977 12.968c0 1.086.906 1.968 2.023 1.968s2.023-.882 2.023-1.968C26.025 11.88 25.119 11 24 11c-1.117 0-2.023.881-2.023 1.968ZM12 18.567c0 1.087.906 1.969 2.023 1.969s2.023-.882 2.023-1.969c0-1.086-.906-1.968-2.023-1.968S12 17.481 12 18.567ZM12 29.776c0 1.087.906 1.968 2.023 1.968s2.023-.881 2.023-1.968c0-1.086-.906-1.968-2.023-1.968S12 28.69 12 29.776ZM21.975 35.38c0 1.087.906 1.969 2.023 1.969s2.023-.882 2.023-1.968c0-1.087-.905-1.968-2.023-1.968-1.117 0-2.023.88-2.023 1.968ZM31.952 29.782c0 1.086.906 1.967 2.024 1.967 1.117 0 2.023-.88 2.023-1.967 0-1.087-.907-1.968-2.023-1.968-1.118 0-2.024.881-2.024 1.968ZM31.954 18.567c0 1.087.906 1.969 2.023 1.969S36 19.654 36 18.567c0-1.086-.906-1.968-2.023-1.968s-2.023.882-2.023 1.968ZM21.975 24.172c0 1.086.906 1.968 2.023 1.968s2.023-.882 2.023-1.968c0-1.087-.905-1.968-2.023-1.968-1.117-.002-2.023.88-2.023 1.968Z" fill="#fff" fill-opacity=".3"/></svg>